<?xml version="1.0" encoding="UTF-8" standalone="no"?>
<svg
   width="512"
   height="512"
   viewBox="0 0 512 512"
   version="1.1"
   id="svg2"
   sodipodi:docname="favicon.svg"
   inkscape:export-filename="../favicon/favicon-512x512.png"
   inkscape:export-xdpi="96"
   inkscape:export-ydpi="96"
   inkscape:version="1.4.3 (0d15f75042, 2025-12-25)"
   xml:space="preserve"
   xmlns:inkscape="http://www.inkscape.org/namespaces/inkscape"
   xmlns:sodipodi="http://sodipodi.sourceforge.net/DTD/sodipodi-0.dtd"
   xmlns="http://www.w3.org/2000/svg"
   xmlns:svg="http://www.w3.org/2000/svg"><defs
     id="defs2" /><sodipodi:namedview
     id="namedview2"
     pagecolor="#020617"
     bordercolor="#000000"
     borderopacity="0.25"
     inkscape:showpageshadow="2"
     inkscape:pageopacity="0.0"
     inkscape:pagecheckerboard="0"
     inkscape:deskcolor="#d1d1d1"
     inkscape:zoom="0.83203127"
     inkscape:cx="179.68075"
     inkscape:cy="235.56807"
     inkscape:window-width="2560"
     inkscape:window-height="1052"
     inkscape:window-x="0"
     inkscape:window-y="0"
     inkscape:window-maximized="1"
     inkscape:current-layer="layer1"
     showguides="true"><sodipodi:guide
       position="121.85124,254.51464"
       orientation="1,0"
       id="guide1"
       inkscape:locked="false" /><sodipodi:guide
       position="390.16605,253.35763"
       orientation="1,0"
       id="guide2"
       inkscape:locked="false" /><sodipodi:guide
       position="256.3505,390.29545"
       orientation="0,-1"
       id="guide3"
       inkscape:locked="false" /><sodipodi:guide
       position="256.48735,121.83513"
       orientation="0,-1"
       id="guide4"
       inkscape:locked="false" /></sodipodi:namedview><g
     id="layer1"
     transform="translate(549.51174,-0.90140945)"
     style="display:inline"
     inkscape:label="Mine"><rect
       style="display:none;fill:#020617;fill-opacity:1;fill-rule:evenodd;stroke-width:0.701505"
       id="rect2-7"
       width="512"
       height="512"
       x="-549.51172"
       y="0.90140945"
       inkscape:label="background" /><path
       id="path1-3"
       style="display:inline;fill:#f8fafc;fill-opacity:1;stroke:none;stroke-width:22.6498;stroke-linecap:round;stroke-linejoin:round;stroke-dasharray:none;stroke-opacity:1;paint-order:stroke fill markers"
       inkscape:label="mine"
       d="m -314.6426,20.151409 -2.28125,2.283204 c -3.14972,3.149715 -3.48933,4.714591 -6.21094,28.773437 -1.31966,11.665399 -2.71102,22.636739 -3.09179,24.380859 l -0.69141,3.171875 -13.28711,3.50586 c -16.17041,4.26381 -31.08482,10.476229 -44.02539,18.337886 -15.45125,10.6472 -16.01792,1.89827 -31.55273,-10.005855 l -20.7129,-15.908203 h -4.39453 -4.39257 l -14.2793,13.814453 c -20.42207,19.756505 -20.48338,18.007385 1.62109,45.373045 l 15.65235,19.37891 -6.76172,11.84765 c -8.16308,14.30728 -15.17498,32.04221 -18.5625,46.94727 l -2.50586,11.0293 -3.80078,0.7539 c -2.09009,0.41464 -14.0248,1.83654 -26.52344,3.15821 l -22.72461,2.40234 -3.4082,2.2168 -3.41016,2.2207 -0.082,3.375 c -0.0447,1.85563 -0.0153,11.89697 0.0684,22.3125 l 0.14844,18.9375 2.80859,2.83594 2.81055,2.83398 26.77148,2.69922 c 14.72285,1.48359 26.94365,2.93295 27.15625,3.22266 0.21264,0.28963 1.93666,6.32172 3.83203,13.40429 4.51254,16.86203 9.26572,28.43842 17.5625,42.75391 l 6.7793,11.69336 -16.6543,21.63672 -16.65039,21.63281 -0.008,4.81836 -0.006,4.81641 14.4707,13.35547 c 7.95766,7.34647 15.87971,13.88115 17.60547,14.51953 l 3.13672,1.16015 4.23828,-2.11328 c 2.33085,-1.1628 12.82488,-9.10805 23.32031,-17.65625 l 19.08204,-15.54297 2.63085,2.27344 c 1.44597,1.25038 7.39973,5.06452 13.23243,8.47656 l 10.60351,6.20508 16.10156,5.37109 c 8.85453,2.95494 17.56363,5.375 19.35352,5.375 h 3.25391 l 1.27343,3.40821 c 0.69967,1.87477 2.42922,13.29496 3.84375,25.37695 1.41456,12.08201 2.96249,23.57097 3.43946,25.5332 l 0.86718,3.56836 4.20508,1.76563 4.20313,1.76953 17.93945,-0.23047 c 21.70272,-0.27853 20.55042,-0.15797 23.73047,-2.48633 l 2.58789,-1.89258 1.40234,-9.09179 c 0.77238,-4.99949 1.87061,-14.54304 2.4375,-21.20899 0.5669,-6.66591 1.45826,-15.08596 1.98047,-18.71289 l 0.94532,-6.59765 13.63671,-3.4668 c 19.10664,-4.85908 37.67481,-12.96034 51.10157,-22.29492 l 4.13867,-2.875 18.58789,14.96679 c 10.22274,8.23213 20.39058,16.14033 22.59375,17.57422 l 4.00391,2.60743 3.79101,-0.95118 3.79102,-0.95312 13.79297,-14.0625 13.78906,-14.06445 v -3.95704 -3.95703 l -16.70899,-22.23437 -16.71289,-22.23633 3.6875,-5.56836 c 9.39837,-14.20195 19.8375,-39.87649 22.94141,-56.42187 l 1.04687,-5.57813 6.28125,-0.875 c 3.45577,-0.48226 15.390222,-1.8016 26.519536,-2.92773 l 20.234375,-2.04493 3.058593,-3.06054 3.060547,-3.05664 -0.05859,-16.43555 c -0.03215,-9.03765 -0.116874,-18.97072 -0.189453,-22.07617 l -0.134765,-5.64844 -3.408203,-2.20703 -3.408204,-2.20703 -22.726562,-2.44336 c -12.49862,-1.3452 -24.102364,-3.01196 -25.789064,-3.70117 l -3.06641,-1.25391 -1.99023,-9.6543 c -2.82549,-13.72381 -11.27263,-34.80529 -19.14453,-47.77148 l -6.74219,-11.10352 16.62695,-20.58984 16.62305,-20.58984 v -3.8711 -3.87304 L -125.012,89.629925 -139.68778,74.690472 h -4.14453 -4.14258 l -20.93164,16.121094 -20.92774,16.121094 -5.32226,-3.3125 c -2.92699,-1.82157 -11.54302,-6.349922 -19.14453,-10.064454 l -13.82032,-6.755859 -15.72265,-4.044922 c -22.15942,-5.546697 -16.0917,-3.61295 -18.62305,-27.759766 -2.89615,-27.785222 -3.20458,-29.372537 -6.29687,-32.464843 l -2.37696,-2.378907 h -21.7539 z m 16.22266,100.910161 v 19.21093 19.21289 l -6.69532,1.80469 c -9.65816,2.60069 -19.60411,7.39488 -31.60351,15.23633 l -10.51172,6.86719 -10.4375,11.06445 -10.43945,11.06836 -6.31641,11.44141 c -3.47536,6.29366 -7.93877,17.04392 -9.91602,23.88671 l -3.5957,12.43946 h -20.45898 -20.46094 l 1.03516,-9.13086 c 6.95292,-61.40027 60.25628,-116.01681 119.11328,-122.04688 z" /></g></svg>
