<?xml version="1.0" encoding="UTF-8" standalone="no"?>
<!-- Created with Inkscape (http://www.inkscape.org/) -->

<svg
   width="429.81213"
   height="429.81213"
   viewBox="0 0 429.81213 429.81213"
   version="1.1"
   id="svg1"
   xml:space="preserve"
   xmlns="http://www.w3.org/2000/svg"
   xmlns:svg="http://www.w3.org/2000/svg"><defs
     id="defs1" /><g
     id="layer1"
     transform="translate(-41.093933,-41.093933)"><path
       id="rect1"
       d="m 115.7327,41.093933 h 280.53461 a 74.638764,74.638764 45 0 1 74.63876,74.638767 l 0,280.53461 a 74.638764,74.638764 135 0 1 -74.63876,74.63876 l -280.53461,0 A 74.638764,74.638764 45 0 1 41.093933,396.26731 V 115.7327 A 74.638764,74.638764 135 0 1 115.7327,41.093933 Z"
       style="fill:#d8e7ff;fill-rule:evenodd;stroke-width:1.00157" /><path
       style="fill:#3a86ff;fill-opacity:1;stroke-width:3.77953"
       d="m 241.95263,411.1049 -2.77463,-1.16662 -0.57267,-2.35495 c -0.31484,-1.29521 -1.33663,-8.87993 -2.27034,-16.85492 -0.93369,-7.97499 -2.07549,-15.5125 -2.53731,-16.75 l -0.8397,-2.25002 h -2.14809 c -1.18145,0 -6.93011,-1.5958 -12.77473,-3.54626 l -10.62667,-3.54625 -6.99999,-4.09493 c -3.85001,-2.25219 -7.78095,-4.77018 -8.73539,-5.59552 l -1.73541,-1.50058 -12.59584,10.25896 c -6.92773,5.64242 -13.85468,10.88693 -15.39322,11.65447 l -2.79736,1.39548 -2.07113,-0.76615 c -1.13912,-0.42138 -6.36876,-4.73367 -11.6214,-9.58288 l -9.55025,-8.81669 0.003,-3.17983 0.003,-3.17979 10.99243,-14.28027 10.99243,-14.28026 -4.47413,-7.71972 c -5.47648,-9.44924 -8.61555,-17.08959 -11.59414,-28.21973 -1.25109,-4.67501 -2.38955,-8.65641 -2.5299,-8.84758 -0.14033,-0.19124 -8.20639,-1.14878 -17.92454,-2.12806 l -17.6693,-1.78046 -1.85474,-1.87196 -1.854742,-1.87192 -0.0988,-12.50004 c -0.0543,-6.87499 -0.0746,-13.50209 -0.045,-14.72693 l 0.0538,-2.22693 2.250002,-1.46566 2.25,-1.46567 15,-1.58619 c 8.25,-0.87239 16.12878,-1.81009 17.50839,-2.08377 l 2.50839,-0.49761 1.6546,-7.28024 c 2.236,-9.83841 6.86441,-21.54402 12.25262,-30.98786 l 4.46222,-7.82083 -10.33188,-12.79102 c -14.59053,-18.0633 -14.54931,-16.90858 -1.06928,-29.94928 l 9.42518,-9.118 h 2.90004 2.90004 l 13.67224,10.49999 c 7.51971,5.775 13.83889,10.50002 14.04261,10.50002 0.20372,0 3.25659,-1.7534 6.78414,-3.89647 8.5417,-5.18925 18.38736,-9.29023 29.06101,-12.10465 l 8.77029,-2.31255 0.45694,-2.09317 c 0.25134,-1.15124 1.16961,-8.39317 2.04068,-16.09317 1.79646,-15.88057 2.01968,-16.91505 4.09872,-18.99408 l 1.50592,-1.505921 h 14.35714 14.35714 l 1.56994,1.569931 c 2.04113,2.04114 2.24451,3.08984 4.15619,21.43007 0.88861,8.525 1.68341,15.53404 1.76618,15.57565 0.0828,0.0416 4.82026,1.27759 10.52772,2.74663 l 10.37719,2.67097 9.12283,4.45792 c 5.01755,2.45185 10.70358,5.44169 12.6356,6.64407 l 3.51281,2.18612 13.81519,-10.6407 13.8152,-10.64066 h 2.73482 2.7348 l 9.68719,9.85993 9.68719,9.85991 v 2.55614 2.55613 l -10.97412,13.59107 -10.97416,13.5911 4.44975,7.32926 c 5.19602,8.5586 10.7726,22.47206 12.63764,31.53076 l 1.31241,6.37432 2.02424,0.82708 c 1.11333,0.45494 8.77425,1.55357 17.02424,2.4415 l 15,1.61438 2.24999,1.45728 2.25003,1.45727 0.0873,3.72692 c 0.048,2.04982 0.1047,8.60779 0.12586,14.57329 l 0.0385,10.84633 -2.01932,2.01929 -2.01929,2.01929 -13.35659,1.35148 c -7.34615,0.74332 -15.22288,1.61193 -17.50394,1.93025 l -4.14731,0.57879 -0.6904,3.6802 c -2.04881,10.92114 -8.93999,27.86877 -15.14359,37.24309 l -2.43311,3.67661 11.03086,14.67757 11.03089,14.67757 v 2.61128 2.61127 l -9.10334,9.28286 -9.10337,9.28282 -2.50253,0.62808 -2.50254,0.62812 -2.64412,-1.72085 c -1.45425,-0.94647 -8.16499,-6.16668 -14.91273,-11.60047 l -12.26861,-9.87961 -2.73139,1.89891 c -8.86262,6.1615 -21.11962,11.509 -33.73138,14.71635 l -9,2.28884 -0.62653,4.35277 c -0.34469,2.39403 -0.93271,7.95281 -1.30692,12.35278 -0.37418,4.40001 -1.09754,10.7 -1.60736,14.00001 l -0.92697,6 -1.70725,1.25001 c -2.09907,1.53691 -1.34022,1.45738 -15.66557,1.64122 l -11.84058,0.15194 z M 198.79948,245.89329 c 1.2452,-4.30935 4.05475,-11.07806 6.2434,-15.04158 l 3.97939,-7.20639 6.5737,-6.96846 6.57365,-6.96843 6.61943,-4.32574 c 7.55679,-4.93826 13.81963,-7.95789 19.90199,-9.59571 l 4.21746,-1.13563 v -12.09956 -12.09955 l -6.47728,0.66361 c -37.06599,3.79752 -70.63682,38.19494 -75.01551,76.8626 l -0.65114,5.74999 h 12.88547 12.88543 z"
       id="path1" /></g></svg>
