<?xml version="1.0" encoding="UTF-8" standalone="no"?>
<!-- Created with Inkscape (http://www.inkscape.org/) -->

<svg
   width="429.81213"
   height="429.81213"
   viewBox="0 0 429.81213 429.81213"
   version="1.1"
   id="svg1"
   xml:space="preserve"
   xmlns="http://www.w3.org/2000/svg"
   xmlns:svg="http://www.w3.org/2000/svg"><defs
     id="defs1" /><g
     id="layer1"
     transform="translate(-41.093933,-41.093933)"><path
       id="rect1"
       d="m 115.7327,41.093933 h 280.53461 a 74.638764,74.638764 45 0 1 74.63876,74.638767 v 280.53461 a 74.638764,74.638764 135 0 1 -74.63876,74.63876 H 115.7327 A 74.638764,74.638764 45 0 1 41.093933,396.26731 V 115.7327 A 74.638764,74.638764 135 0 1 115.7327,41.093933 Z"
       style="fill:#d8e7ff;fill-rule:evenodd;stroke-width:1.00157" /><path
       style="fill:#3a86ff;fill-opacity:1;stroke-width:3.24802"
       d="m 243.92808,389.29284 -2.38444,-1.00256 -0.49214,-2.02378 c -0.27056,-1.11307 -1.14866,-7.63116 -1.95106,-14.48465 -0.80239,-6.85348 -1.78362,-13.33101 -2.1805,-14.39448 l -0.72161,-1.93361 h -1.84601 c -1.01531,0 -5.95554,-1.37138 -10.97825,-3.04756 l -9.13226,-3.04754 -6.0156,-3.51907 c -3.30859,-1.93547 -6.68673,-4.09936 -7.50695,-4.80864 l -1.49136,-1.28955 -10.82452,8.81626 c -5.9535,4.84894 -11.90633,9.35593 -13.2285,10.01553 l -2.40398,1.19924 -1.77987,-0.65841 c -0.97893,-0.36212 -5.47314,-4.06799 -9.98711,-8.23526 l -8.20722,-7.57682 0.003,-2.73266 0.003,-2.73262 9.44659,-12.27207 9.44659,-12.27206 -3.84495,-6.63411 c -4.70633,-8.12042 -7.40396,-14.68632 -9.96368,-24.25125 -1.07515,-4.01758 -2.05351,-7.43908 -2.17412,-7.60337 -0.1206,-0.16434 -7.05235,-0.98723 -15.40386,-1.82879 l -15.1845,-1.53008 -1.59391,-1.60871 -1.59392,-1.60868 -0.0849,-10.74218 c -0.0467,-5.90818 -0.0641,-11.60332 -0.0387,-12.65592 l 0.0462,-1.91376 1.93359,-1.25955 1.93359,-1.25955 12.89058,-1.36313 c 7.08982,-0.74971 13.86062,-1.55554 15.04622,-1.79074 l 2.15564,-0.42763 1.42192,-6.25643 c 1.92156,-8.45486 5.89908,-18.51434 10.52956,-26.63011 l 3.83471,-6.721 -8.87893,-10.99225 c -12.5387,-15.5231 -12.50327,-14.53076 -0.91891,-25.73758 l 8.09974,-7.83575 h 2.49221 2.49222 l 11.74954,9.02339 c 6.46223,4.96288 11.89276,9.02343 12.06783,9.02343 0.17507,0 2.79862,-1.50682 5.8301,-3.34852 7.3405,-4.4595 15.80159,-7.98376 24.97422,-10.4024 l 7.53695,-1.98734 0.39268,-1.79881 c 0.21599,-0.98934 1.00513,-7.21286 1.7537,-13.83002 1.54383,-13.64732 1.73566,-14.53633 3.52233,-16.32299 l 1.29414,-1.29415 h 12.33813 12.33813 l 1.34916,1.34916 c 1.75409,1.7541 1.92887,2.65532 3.57171,18.41641 0.76365,7.32614 1.44668,13.34952 1.51781,13.38528 0.0712,0.0358 4.1424,1.09792 9.04723,2.36037 l 8.91787,2.29536 7.83991,3.83101 c 4.31194,2.10706 9.19836,4.67644 10.85868,5.70973 l 3.01881,1.87869 11.87239,-9.14432 11.8724,-9.14428 h 2.35023 2.35021 l 8.3249,8.47334 8.3249,8.47334 v 2.19667 2.19667 l -9.43085,11.67979 -9.43089,11.67981 3.82399,6.29856 c 4.46532,7.35503 9.25768,19.31187 10.86044,27.09666 l 1.12785,5.47792 1.73957,0.71077 c 0.95677,0.39096 7.54035,1.33509 14.63016,2.09815 l 12.89059,1.38736 1.93357,1.25234 1.93362,1.25234 0.075,3.20281 c 0.0412,1.76156 0.09,7.3973 0.10816,12.52388 l 0.0331,9.32104 -1.73535,1.73532 -1.73532,1.73532 -11.47828,1.16142 c -6.31308,0.63879 -13.08212,1.38525 -15.0424,1.65881 l -3.56409,0.49739 -0.59331,3.16267 c -1.76069,9.38532 -7.68278,23.94964 -13.01398,32.00567 l -2.09094,3.15958 9.47961,12.61349 9.47964,12.6135 v 2.24406 2.24405 l -7.82316,7.97744 -7.82318,7.97739 -2.1506,0.53976 -2.15062,0.53979 -2.27228,-1.47885 c -1.24974,-0.81337 -7.01677,-5.29948 -12.81559,-9.96913 l -10.5433,-8.49026 -2.34728,1.63187 c -7.61629,5.29502 -18.14961,9.89052 -28.98781,12.64682 l -7.73435,1.96697 -0.53842,3.74065 c -0.29622,2.05736 -0.80155,6.83442 -1.12313,10.61564 -0.32156,3.78124 -0.9432,9.19528 -1.38132,12.03122 l -0.79662,5.15623 -1.46716,1.07422 c -1.80388,1.32078 -1.15175,1.25243 -13.46256,1.41042 l -10.17546,0.13057 z M 206.84346,247.31457 c 1.07009,-3.70333 3.48454,-9.52017 5.36541,-12.92631 l 3.41977,-6.19297 5.64926,-5.9885 5.64921,-5.98848 5.68856,-3.71742 c 6.49409,-4.2438 11.8762,-6.83879 17.10321,-8.24629 l 3.62437,-0.97592 v -10.39803 -10.39802 l -5.56639,0.57029 c -31.85349,3.26348 -60.70332,32.82367 -64.46625,66.05358 l -0.55957,4.94138 h 11.07342 11.07338 z"
       id="path1" /></g></svg>
