<?xml version="1.0" encoding="UTF-8" standalone="no"?>
<!-- Uploaded to: SVG Repo, www.svgrepo.com, Generator: SVG Repo Mixer Tools -->

<svg
   width="800px"
   height="800px"
   viewBox="0 0 24 24"
   fill="none"
   version="1.1"
   id="svg1"
   sodipodi:docname="flag.svg"
   inkscape:version="1.4 (e7c3feb100, 2024-10-09)"
   xmlns:inkscape="http://www.inkscape.org/namespaces/inkscape"
   xmlns:sodipodi="http://sodipodi.sourceforge.net/DTD/sodipodi-0.dtd"
   xmlns="http://www.w3.org/2000/svg"
   xmlns:svg="http://www.w3.org/2000/svg">
  <defs
     id="defs1" />
  <sodipodi:namedview
     id="namedview1"
     pagecolor="#ffffff"
     bordercolor="#000000"
     borderopacity="0.25"
     inkscape:showpageshadow="2"
     inkscape:pageopacity="0.0"
     inkscape:pagecheckerboard="0"
     inkscape:deskcolor="#d1d1d1"
     inkscape:zoom="1.05125"
     inkscape:cx="400"
     inkscape:cy="400"
     inkscape:window-width="2560"
     inkscape:window-height="1052"
     inkscape:window-x="0"
     inkscape:window-y="0"
     inkscape:window-maximized="1"
     inkscape:current-layer="svg1" />
  <path
     d="M 4.587654,13.235735 V 3.9703024 c 0,-0.2911816 0,-0.4367725 0.090455,-0.5272401 0.090468,-0.090455 0.2360585,-0.090455 0.5272402,-0.090455 h 4.7957878 c 0.371482,0 0.557162,0 0.706397,0.092247 0.149359,0.092259 0.232377,0.2583944 0.398537,0.5906651 l 0.552467,1.1049584 c 0.16616,0.3322708 0.249178,0.4984062 0.398537,0.5906652 0.149235,0.092247 0.334915,0.092247 0.706397,0.092247 h 6.031179 c 0.291181,0 0.436834,0 0.527264,0.090455 0.09043,0.090468 0.09043,0.2360585 0.09043,0.5272401 v 8.6477379 c 0,0.291181 0,0.436834 -0.09043,0.527264 -0.09043,0.09043 -0.236083,0.09043 -0.527264,0.09043 h -6.031179 c -0.371482,0 -0.557162,0 -0.706397,-0.09228 -0.149359,-0.09216 -0.232377,-0.25832 -0.398537,-0.59064 l -0.552467,-1.104934 c -0.16616,-0.33232 -0.249178,-0.49848 -0.398537,-0.59064 -0.149235,-0.09228 -0.334915,-0.09228 -0.706397,-0.09228 z m 0,0 v 7.412346"
     stroke="#33363f"
     stroke-width="2"
     stroke-linecap="round"
     id="path1" />
  <rect
     style="fill:#33363f;fill-opacity:1;fill-rule:evenodd;stroke-width:0.0371199"
     id="rect1"
     width="7.2889538"
     height="9.5283756"
     x="4.5876541"
     y="3.9703023" />
  <rect
     style="fill:#33363f;fill-opacity:1;fill-rule:evenodd;stroke-width:0.0371199"
     id="rect2"
     width="7.753808"
     height="8.5825081"
     x="11.658537"
     y="6.4410844" />
</svg>
