<?xml version="1.0" encoding="UTF-8" standalone="no"?>
<!-- Created with Inkscape (http://www.inkscape.org/) -->

<svg
   width="82.634438mm"
   height="82.693703mm"
   viewBox="0 0 82.634438 82.693703"
   version="1.1"
   id="svg1"
   xml:space="preserve"
   xmlns="http://www.w3.org/2000/svg"
   xmlns:svg="http://www.w3.org/2000/svg"><defs
     id="defs1" /><g
     id="layer1"
     transform="translate(-63.682783,-73.602235)"><path
       style="fill:#000000"
       d="m 101.28312,155.98726 -0.73412,-0.30867 -0.15152,-0.62308 c -0.0833,-0.34269 -0.35365,-2.34948 -0.600694,-4.45953 -0.24704,-2.11005 -0.54914,-4.10435 -0.67133,-4.43177 l -0.22217,-0.59532 h -0.56835 c -0.31259,0 -1.83359,-0.42222 -3.37998,-0.93828 l -2.81164,-0.93828 -1.85208,-1.08345 c -1.01865,-0.59589 -2.05871,-1.26211 -2.31124,-1.48048 l -0.45916,-0.39703 -3.33265,2.71435 c -1.83296,1.49289 -3.665715,2.8805 -4.072789,3.08358 l -0.740133,0.36922 -0.547988,-0.20271 c -0.301393,-0.11149 -1.685066,-1.25245 -3.074827,-2.53547 l -2.526839,-2.33275 8.82e-4,-0.84133 8.82e-4,-0.84132 2.908414,-3.77832 2.908413,-3.77832 -1.183778,-2.04251 c -1.448986,-2.50011 -2.279531,-4.52162 -3.067616,-7.46647 -0.33102,-1.23693 -0.632237,-2.29034 -0.66937,-2.34092 -0.03713,-0.0506 -2.171274,-0.30395 -4.742535,-0.56305 l -4.67502,-0.47108 -0.490733,-0.49529 -0.490732,-0.49528 -0.02613,-3.3073 c -0.01437,-1.81901 -0.01973,-3.57243 -0.0119,-3.8965 l 0.01423,-0.58921 0.595312,-0.38779 0.595313,-0.38779 3.96875,-0.41968 c 2.182812,-0.23082 4.267405,-0.47892 4.632428,-0.55133 l 0.663678,-0.13166 0.43778,-1.92623 c 0.591608,-2.60308 1.816208,-5.70019 3.241837,-8.198873 l 1.18063,-2.06926 -2.733643,-3.38429 c -3.860412,-4.77925 -3.849504,-4.47373 -0.282915,-7.92408 l 2.493747,-2.412472 h 0.767302 0.767301 l 3.617449,2.778122 c 1.98959,1.52797 3.66154,2.77813 3.71544,2.77813 0.0539,0 0.86164,-0.46392 1.79497,-1.03094 2.25999,-1.37299 4.86499,-2.45804 7.68906,-3.202689 l 2.32047,-0.611861 0.1209,-0.553819 c 0.0665,-0.3046 0.30946,-2.220693 0.53993,-4.257985 0.475314,-4.201734 0.534374,-4.475439 1.084454,-5.025517 l 0.39844,-0.398441 h 3.79866 3.79866 l 0.41538,0.415377 c 0.54005,0.540053 0.59386,0.817522 1.09966,5.67004 0.23511,2.255573 0.4454,4.110049 0.4673,4.121057 0.0219,0.01101 1.27536,0.33803 2.78546,0.726713 l 2.74563,0.706695 2.41375,1.17949 c 1.32756,0.64872 2.83199,1.43978 3.34317,1.75791 l 0.92943,0.57841 3.65527,-2.81535 3.65527,-2.815342 h 0.72359 0.72358 l 2.56307,2.608772 2.56307,2.60877 v 0.67631 0.67631 l -2.90357,3.59597 -2.90358,3.59598 1.17733,1.9392 c 1.37478,2.264463 2.85025,5.945733 3.34371,8.342513 l 0.34724,1.68654 0.53558,0.21883 c 0.29457,0.12037 2.32152,0.41105 4.50433,0.64598 l 3.96875,0.42714 0.59531,0.38557 0.59532,0.38557 0.0231,0.98608 c 0.0127,0.54235 0.0277,2.27748 0.0333,3.85585 l 0.0102,2.86976 -0.53428,0.53427 -0.53427,0.53427 -3.53393,0.35758 c -1.94367,0.19667 -4.02772,0.42649 -4.63125,0.51071 l -1.09731,0.15314 -0.18267,0.97372 c -0.54208,2.88955 -2.36537,7.37361 -4.00674,9.8539 l -0.64376,0.97277 2.91858,3.88344 2.91859,3.88344 v 0.6909 0.6909 l -2.40859,2.45609 -2.4086,2.45608 -0.66213,0.16618 -0.66213,0.16619 -0.69959,-0.45531 c -0.38477,-0.25042 -2.16032,-1.6316 -3.94566,-3.06929 l -3.24607,-2.61398 -0.72268,0.50242 c -2.3449,1.63023 -5.5879,3.04509 -8.92476,3.8937 l -2.38125,0.60559 -0.16577,1.15167 c -0.0912,0.63342 -0.24678,2.10418 -0.34579,3.26834 -0.099,1.16417 -0.29039,2.83104 -0.42528,3.70417 l -0.24526,1.5875 -0.45171,0.33073 c -0.55538,0.40664 -0.3546,0.3856 -4.14485,0.43424 l -3.13282,0.0402 z M 89.865516,112.27502 c 0.32946,-1.14018 1.07282,-2.93107 1.6519,-3.97975 l 1.05288,-1.90669 1.73929,-1.84374 1.73928,-1.84373 1.75139,-1.14452 c 1.9994,-1.30658 3.656444,-2.105523 5.265734,-2.538863 l 1.11587,-0.30047 v -3.20134 -3.20134 l -1.71378,0.17558 C 92.661036,93.494917 83.778756,102.5959 82.620226,112.82672 l -0.17228,1.52135 h 3.40928 3.40927 z"
       id="path1" /></g></svg>
