<?xml version="1.0" encoding="UTF-8" standalone="no"?>
<svg
   width="512"
   height="512"
   viewBox="0 0 512 512"
   version="1.1"
   id="svg2"
   sodipodi:docname="favicon-tab.svg"
   inkscape:export-filename="../favicon/favicon-512x512.png"
   inkscape:export-xdpi="96"
   inkscape:export-ydpi="96"
   inkscape:version="1.4.3 (0d15f75042, 2025-12-25)"
   xml:space="preserve"
   xmlns:inkscape="http://www.inkscape.org/namespaces/inkscape"
   xmlns:sodipodi="http://sodipodi.sourceforge.net/DTD/sodipodi-0.dtd"
   xmlns="http://www.w3.org/2000/svg"
   xmlns:svg="http://www.w3.org/2000/svg"><defs
     id="defs2" /><sodipodi:namedview
     id="namedview2"
     pagecolor="#020617"
     bordercolor="#000000"
     borderopacity="0.25"
     inkscape:showpageshadow="2"
     inkscape:pageopacity="0.0"
     inkscape:pagecheckerboard="0"
     inkscape:deskcolor="#d1d1d1"
     inkscape:zoom="1.1766699"
     inkscape:cx="44.617441"
     inkscape:cy="145.32538"
     inkscape:window-width="2560"
     inkscape:window-height="1052"
     inkscape:window-x="0"
     inkscape:window-y="0"
     inkscape:window-maximized="1"
     inkscape:current-layer="svg2"
     showguides="true"><sodipodi:guide
       position="121.85124,254.51464"
       orientation="1,0"
       id="guide1"
       inkscape:locked="false" /><sodipodi:guide
       position="390.16605,253.35763"
       orientation="1,0"
       id="guide2"
       inkscape:locked="false" /><sodipodi:guide
       position="256.3505,390.29545"
       orientation="0,-1"
       id="guide3"
       inkscape:locked="false" /><sodipodi:guide
       position="256.48735,121.83513"
       orientation="0,-1"
       id="guide4"
       inkscape:locked="false" /></sodipodi:namedview><g
     id="layer1"
     transform="translate(549.51174,-0.90140945)"
     style="display:inline"
     inkscape:label="Mine"><rect
       style="display:none;fill:#020617;fill-opacity:1;fill-rule:evenodd;stroke-width:0.701505"
       id="rect2-7"
       width="512"
       height="512"
       x="-549.51172"
       y="0.90140945"
       inkscape:label="background" /><path
       id="path1-3"
       style="display:inline;fill:none;stroke:#f8fafc;stroke-width:22.6498;stroke-linecap:round;stroke-linejoin:round;stroke-dasharray:none;stroke-opacity:1;paint-order:stroke fill markers"
       d="m -314.64356,20.151211 -2.27937,2.28281 c -3.14972,3.149715 -3.48985,4.715675 -6.21146,28.774521 -1.31966,11.665399 -2.71119,22.636916 -3.09196,24.381036 l -0.69207,3.171148 -13.28718,3.505147 c -16.17041,4.26381 -31.08371,10.476636 -44.02428,18.338297 -15.45125,10.6472 -16.01832,1.89829 -31.55313,-10.005835 L -436.49708,74.69091 h -4.39348 -4.39347 l -14.2788,13.813971 c -20.42207,19.756509 -20.48275,18.008339 1.62172,45.373999 l 15.65262,19.37813 -6.76236,11.84792 c -8.16308,14.30728 -15.17457,32.04245 -18.56209,46.94751 l -2.50663,11.02847 -3.80125,0.75404 c -2.09009,0.41464 -14.02404,1.83572 -26.52268,3.15739 l -22.72488,2.40332 -3.40873,2.2174 -3.40872,2.22085 -0.0828,3.37429 c -0.0447,1.85563 -0.0148,11.89617 0.0689,22.3117 l 0.14801,18.93738 2.80962,2.83717 2.80962,2.83372 26.77059,2.69944 c 14.72285,1.48359 26.94361,2.9331 27.15621,3.22281 0.21264,0.28963 1.93688,6.32164 3.83225,13.40421 4.51254,16.86203 9.2668,28.43829 17.56358,42.75378 l 6.77958,11.69296 -16.65458,21.63685 -16.65112,21.63339 -0.007,4.81699 -0.007,4.81696 14.47164,13.35605 c 7.95766,7.34647 15.87913,13.88143 17.60489,14.51981 l 3.1367,1.16036 4.23854,-2.11411 c 2.33085,-1.1628 12.82511,-9.10835 23.32054,-17.65655 l 19.08201,-15.54242 2.63057,2.27248 c 1.44597,1.25038 7.39938,5.06502 13.23208,8.47706 l 10.60495,6.20459 16.10023,5.37133 c 8.85453,2.95494 17.56411,5.37478 19.354,5.37478 h 3.2538 l 1.27396,3.40873 c 0.69967,1.87477 2.42805,13.29411 3.84258,25.3761 1.41456,12.08201 2.96275,23.57228 3.43972,25.53451 l 0.86768,3.56712 4.20411,1.76633 4.20409,1.7698 17.93887,-0.23069 c 21.70272,-0.27853 20.55023,-0.15761 23.73028,-2.48597 l 2.58926,-1.89375 1.40136,-9.08994 c 0.77238,-4.99949 1.87088,-14.54394 2.43777,-21.20989 0.5669,-6.66591 1.4576,-15.08666 1.97981,-18.71359 l 0.94688,-6.5971 13.63494,-3.46727 c 19.10664,-4.85908 37.67666,-12.95989 51.10342,-22.29447 l 4.13866,-2.87505 18.58619,14.96742 c 10.22274,8.23213 20.39088,16.14002 22.59405,17.57391 l 4.00439,2.60647 3.79091,-0.95029 3.79094,-0.95377 13.79331,-14.06188 13.78986,-14.06532 v -3.9562 -3.95618 l -16.70967,-22.23595 -16.71312,-22.23594 3.68765,-5.5676 c 9.39837,-14.20195 19.83786,-39.87772 22.94177,-56.4231 l 1.04673,-5.57794 6.28033,-0.87455 c 3.45577,-0.48226 15.389923,-1.80057 26.519237,-2.9267 l 20.235481,-2.04522 3.057513,-3.06097 3.060986,-3.05755 -0.05857,-16.4342 c -0.03215,-9.03765 -0.116777,-18.97212 -0.189356,-22.07757 l -0.134331,-5.64677 -3.408713,-2.20709 -3.408731,-2.20705 -22.724887,-2.44465 c -12.49862,-1.3452 -24.102599,-3.01219 -25.789299,-3.7014 l -3.06784,-1.25332 -1.99016,-9.65463 c -2.82549,-13.72381 -11.27207,-34.80424 -19.14397,-47.77043 l -6.74172,-11.1042 16.62703,-20.59012 16.62361,-20.59012 v -3.87011 -3.87357 L -125.01253,89.630802 -139.68729,74.69091 h -4.14556 -4.14213 l -20.93099,16.120895 -20.92754,16.120875 -5.32312,-3.31232 c -2.92699,-1.82157 -11.54249,-6.349832 -19.144,-10.064364 l -13.82084,-6.755471 -15.72149,-4.045721 c -22.15942,-5.546697 -16.09272,-3.611965 -18.62407,-27.758781 -2.89615,-27.785222 -3.20525,-29.373281 -6.29754,-32.465587 l -2.37579,-2.379225 h -21.7539 z"
       sodipodi:nodetypes="ccscccscccccsccccsccccccccccsscccccccsccccccccsccsccccccccscccccccccccccccccccccccccccccccccccccccccccccccccscccc"
       inkscape:label="mine" /><path
       id="path5"
       style="display:inline;fill:#fafcf8;fill-opacity:1;stroke:none;stroke-width:6.0015;stroke-opacity:1"
       d="m -298.42085,121.06173 v 19.21 19.21363 l -6.69446,1.80443 c -9.65816,2.60069 -19.60346,7.39519 -31.60286,15.23664 l -10.51265,6.86768 -10.43685,11.06479 -10.44046,11.06841 -6.31551,11.44011 c -3.47536,6.29366 -7.93992,17.04432 -9.91717,23.88711 l -3.59443,12.43977 h -20.45869 -20.46229 l 1.03575,-9.13044 c 6.95292,-61.40027 60.25733,-116.01828 119.11433,-122.04835 z"
       sodipodi:nodetypes="cccccccccsccccsc"
       inkscape:label="mine-highlight" /></g></svg>
