<?xml version="1.0" encoding="UTF-8" standalone="no"?>
<svg
   width="512"
   height="512"
   viewBox="0 0 512 512"
   version="1.1"
   id="svg2"
   sodipodi:docname="favicon.svg"
   inkscape:export-filename="../favicon/favicon-512x512.png"
   inkscape:export-xdpi="96"
   inkscape:export-ydpi="96"
   inkscape:version="1.4.3 (0d15f75042, 2025-12-25)"
   xml:space="preserve"
   xmlns:inkscape="http://www.inkscape.org/namespaces/inkscape"
   xmlns:sodipodi="http://sodipodi.sourceforge.net/DTD/sodipodi-0.dtd"
   xmlns="http://www.w3.org/2000/svg"
   xmlns:svg="http://www.w3.org/2000/svg"><defs
     id="defs2" /><sodipodi:namedview
     id="namedview2"
     pagecolor="#020617"
     bordercolor="#000000"
     borderopacity="0.25"
     inkscape:showpageshadow="2"
     inkscape:pageopacity="0.0"
     inkscape:pagecheckerboard="0"
     inkscape:deskcolor="#d1d1d1"
     inkscape:zoom="1.1766699"
     inkscape:cx="44.617441"
     inkscape:cy="145.32538"
     inkscape:window-width="2560"
     inkscape:window-height="1052"
     inkscape:window-x="0"
     inkscape:window-y="0"
     inkscape:window-maximized="1"
     inkscape:current-layer="svg2"
     showguides="true"><sodipodi:guide
       position="121.85124,254.51464"
       orientation="1,0"
       id="guide1"
       inkscape:locked="false" /><sodipodi:guide
       position="390.16605,253.35763"
       orientation="1,0"
       id="guide2"
       inkscape:locked="false" /><sodipodi:guide
       position="256.3505,390.29545"
       orientation="0,-1"
       id="guide3"
       inkscape:locked="false" /><sodipodi:guide
       position="256.48735,121.83513"
       orientation="0,-1"
       id="guide4"
       inkscape:locked="false" /></sodipodi:namedview><g
     id="layer1"
     transform="translate(549.51174,-0.90140945)"
     style="display:inline"
     inkscape:label="Mine"><rect
       style="display:inline;fill:#020617;fill-opacity:1;fill-rule:evenodd;stroke-width:0.701505"
       id="rect2-7"
       width="512"
       height="512"
       x="-549.51172"
       y="0.90140945"
       inkscape:label="background" /><path
       id="path1-3"
       style="display:inline;fill:none;stroke:#f8fafc;stroke-width:12.2581;stroke-linecap:round;stroke-linejoin:round;stroke-dasharray:none;stroke-opacity:1;paint-order:stroke fill markers"
       d="m -304.94967,128.77186 -1.2336,1.23546 c -1.70463,1.70463 -1.88871,2.55213 -3.36165,15.57281 -0.7142,6.31333 -1.4673,12.25113 -1.67337,13.19505 l -0.37455,1.71623 -7.19104,1.89699 c -8.75145,2.30758 -16.82255,5.66997 -23.826,9.92471 -8.36224,5.76228 -8.66914,1.02736 -17.0766,-5.41517 l -11.21048,-8.60912 h -2.37776 -2.37775 l -7.72771,7.47614 c -11.05245,10.69225 -11.08529,9.74614 0.87768,24.55647 l 8.47122,10.48747 -3.6598,6.41211 c -4.41787,7.74312 -8.2125,17.34142 -10.04583,25.40806 l -1.35659,5.96862 -2.05724,0.40809 c -1.13116,0.2244 -7.58983,0.99349 -14.35411,1.70878 l -12.29874,1.30068 -1.84481,1.20006 -1.8448,1.20193 -0.0448,1.82617 c -0.0242,1.00427 -0.008,6.43822 0.0373,12.07512 l 0.0801,10.24894 1.52057,1.53548 1.52057,1.53361 14.48828,1.46094 c 7.96803,0.80292 14.58192,1.5874 14.69698,1.74419 0.11508,0.15675 1.04824,3.42128 2.07402,7.25438 2.44219,9.12575 5.0152,15.39084 9.50543,23.1384 l 3.66912,6.32825 -9.01348,11.70989 -9.01161,11.70802 -0.004,2.60696 -0.004,2.60695 7.83207,7.22831 c 4.3067,3.97592 8.59381,7.51265 9.52779,7.85814 l 1.69759,0.62799 2.2939,-1.14416 c 1.26146,-0.62931 6.94097,-4.92945 12.62111,-9.55575 l 10.32721,-8.41158 1.42367,1.22987 c 0.78256,0.67671 4.00455,2.7412 7.16122,4.5878 l 5.73941,3.35793 8.71347,2.90697 c 4.79208,1.59922 9.50572,2.90884 10.47441,2.90884 h 1.76096 l 0.68947,1.84481 c 0.37866,1.01463 1.31406,7.19479 2.07961,13.73358 0.76556,6.5388 1.60344,12.75735 1.86158,13.81931 l 0.46959,1.93053 2.27527,0.95594 2.27526,0.95782 9.70854,-0.12485 c 11.74554,-0.15074 11.12181,-0.0853 12.84286,-1.34541 l 1.40131,-1.0249 0.75842,-4.91949 c 0.41801,-2.70573 1.01252,-7.8712 1.31932,-11.47882 0.30681,-3.6076 0.78886,-8.16492 1.07148,-10.12782 l 0.51245,-3.57036 7.37925,-1.87649 c 10.34054,-2.62974 20.39066,-7.01391 27.65724,-12.0658 l 2.23985,-1.55598 10.05887,8.10039 c 5.53256,4.45524 11.03557,8.735 12.22793,9.51102 l 2.16718,1.41063 2.05165,-0.5143 2.05166,-0.51618 7.46496,-7.61031 7.46309,-7.61217 v -2.1411 -2.14109 l -9.0433,-12.03413 -9.04516,-12.03412 1.99576,-3.01319 c 5.08641,-7.68612 10.73628,-21.58188 12.41612,-30.53626 l 0.56649,-3.01879 3.39892,-0.47331 c 1.87027,-0.261 8.32905,-0.97447 14.35225,-1.58393 l 10.95147,-1.10688 1.65473,-1.6566 1.65661,-1.65475 -0.0317,-8.89421 c -0.0174,-4.89119 -0.0632,-10.26774 -0.10248,-11.94841 l -0.0727,-3.05604 -1.8448,-1.19448 -1.84481,-1.19446 -12.29874,-1.32305 c -6.76427,-0.72802 -13.04436,-1.6302 -13.9572,-2.0032 l -1.66032,-0.6783 -1.07708,-5.2251 c -1.52916,-7.42734 -6.10046,-18.8361 -10.36074,-25.85342 l -3.64863,-6.00961 8.99857,-11.1434 8.99672,-11.1434 v -2.09451 -2.09638 l -7.94201,-8.08361 -7.942,-8.08549 h -2.24358 -2.24173 l -11.32788,8.72465 -11.32601,8.72464 -2.88088,-1.79263 c -1.58409,-0.98584 -6.24681,-3.43654 -10.36076,-5.44685 l -7.47986,-3.65607 -8.50849,-2.18955 c -11.99271,-3.00188 -8.7094,-1.9548 -10.07937,-15.02309 -1.5674,-15.0374 -1.73469,-15.89686 -3.40824,-17.57042 l -1.28578,-1.28764 h -11.77324 z"
       sodipodi:nodetypes="ccscccscccccsccccsccccccccccsscccccccsccccccccsccsccccccccscccccccccccccccccccccccccccccccccccccccccccccccccscccc"
       inkscape:label="mine" /><path
       id="path5"
       style="display:inline;fill:#fafcf8;fill-opacity:1;stroke:none;stroke-width:3.24802;stroke-opacity:1"
       d="m -296.16992,183.38477 v 10.39648 10.39844 l -3.62305,0.97656 c -5.22701,1.4075 -10.60942,4.00229 -17.10351,8.24609 l -5.68946,3.7168 -5.64844,5.98828 -5.65039,5.99024 -3.41796,6.1914 c -1.88087,3.40614 -4.2971,9.22441 -5.36719,12.92774 l -1.94531,6.73242 h -11.07227 -11.07422 l 0.56055,-4.94141 c 3.76293,-33.22991 32.61135,-62.78925 64.46484,-66.05273 z"
       sodipodi:nodetypes="cccccccccsccccsc"
       inkscape:label="mine-highlight" /></g></svg>
